<svg width="16" height="16" viewBox="0 0 16 16" fill="none" xmlns="http://www.w3.org/2000/svg">
<path fill-rule="evenodd" clip-rule="evenodd" d="M4.22007 6.21997C4.3607 6.07952 4.55132 6.00063 4.75007 6.00063C4.94882 6.00063 5.13945 6.07952 5.28007 6.21997L8.00007 8.93997L10.7201 6.21997C10.7887 6.14628 10.8715 6.08718 10.9635 6.04619C11.0555 6.0052 11.1548 5.98316 11.2556 5.98138C11.3563 5.9796 11.4563 5.99813 11.5497 6.03585C11.6431 6.07357 11.7279 6.12971 11.7991 6.20093C11.8703 6.27215 11.9265 6.35698 11.9642 6.45037C12.0019 6.54376 12.0204 6.64379 12.0187 6.74449C12.0169 6.8452 11.9948 6.94451 11.9539 7.03651C11.9129 7.12851 11.8538 7.21131 11.7801 7.27997L8.53007 10.53C8.38945 10.6704 8.19882 10.7493 8.00007 10.7493C7.80132 10.7493 7.6107 10.6704 7.47007 10.53L4.22007 7.27997C4.07962 7.13935 4.00073 6.94872 4.00073 6.74997C4.00073 6.55122 4.07962 6.3606 4.22007 6.21997Z" fill="black"/>
</svg>
