<svg width="25" height="24" viewBox="0 0 25 24" fill="none" xmlns="http://www.w3.org/2000/svg">
<path d="M12.5 6.75C12.3011 6.75 12.1103 6.67098 11.9697 6.53033C11.829 6.38968 11.75 6.19891 11.75 6C11.75 5.80109 11.829 5.61032 11.9697 5.46967C12.1103 5.32902 12.3011 5.25 12.5 5.25C12.6989 5.25 12.8897 5.32902 13.0303 5.46967C13.171 5.61032 13.25 5.80109 13.25 6C13.25 6.19891 13.171 6.38968 13.0303 6.53033C12.8897 6.67098 12.6989 6.75 12.5 6.75ZM12.5 12.75C12.3011 12.75 12.1103 12.671 11.9697 12.5303C11.829 12.3897 11.75 12.1989 11.75 12C11.75 11.8011 11.829 11.6103 11.9697 11.4697C12.1103 11.329 12.3011 11.25 12.5 11.25C12.6989 11.25 12.8897 11.329 13.0303 11.4697C13.171 11.6103 13.25 11.8011 13.25 12C13.25 12.1989 13.171 12.3897 13.0303 12.5303C12.8897 12.671 12.6989 12.75 12.5 12.75ZM12.5 18.75C12.3011 18.75 12.1103 18.671 11.9697 18.5303C11.829 18.3897 11.75 18.1989 11.75 18C11.75 17.8011 11.829 17.6103 11.9697 17.4697C12.1103 17.329 12.3011 17.25 12.5 17.25C12.6989 17.25 12.8897 17.329 13.0303 17.4697C13.171 17.6103 13.25 17.8011 13.25 18C13.25 18.1989 13.171 18.3897 13.0303 18.5303C12.8897 18.671 12.6989 18.75 12.5 18.75Z" stroke="black" stroke-width="1.5" stroke-linecap="round" stroke-linejoin="round"/>
</svg>
